<svg xmlns="http://www.w3.org/2000/svg" viewBox="0 0 64 64">
  <!-- Background -->
  <rect x="4" y="6" width="56" height="54" rx="10" fill="#ffffff" stroke="#e5e7eb"></rect>

  <!-- Top bar -->
  <rect x="4" y="6" width="56" height="16" rx="10" fill="#ef4444"></rect>

  <!-- Rings -->
  <rect x="18" y="2" width="4" height="10" rx="2" fill="#374151"></rect>
  <rect x="42" y="2" width="4" height="10" rx="2" fill="#374151"></rect>

  <!-- Grid dots -->
  <g fill="#d1d5db">
    <rect x="12" y="28" width="6" height="6" rx="2"></rect>
    <rect x="22" y="28" width="6" height="6" rx="2"></rect>
    <rect x="32" y="28" width="6" height="6" rx="2"></rect>
    <rect x="42" y="28" width="6" height="6" rx="2"></rect>

    <rect x="12" y="38" width="6" height="6" rx="2"></rect>
    <rect x="22" y="38" width="6" height="6" rx="2"></rect>
    <rect x="32" y="38" width="6" height="6" rx="2"></rect>
    <rect x="42" y="38" width="6" height="6" rx="2"></rect>
  </g>

  <!-- Highlight date -->
  <rect x="42" y="48" width="6" height="6" rx="2" fill="#ef4444"></rect>
</svg>